<?xml version="1.0" encoding="UTF-8" standalone="no"?>
<!-- Created with Inkscape (http://www.inkscape.org/) -->

<svg
   xmlns:dc="http://purl.org/dc/elements/1.1/"
   xmlns:cc="http://creativecommons.org/ns#"
   xmlns:rdf="http://www.w3.org/1999/02/22-rdf-syntax-ns#"
   xmlns:svg="http://www.w3.org/2000/svg"
   xmlns="http://www.w3.org/2000/svg"
   xmlns:sodipodi="http://sodipodi.sourceforge.net/DTD/sodipodi-0.dtd"
   xmlns:inkscape="http://www.inkscape.org/namespaces/inkscape"
   width="1052.3622"
   height="744.09448"
   id="svg2"
   version="1.1"
   inkscape:version="0.48.3.1 r9886"
   sodipodi:docname="pandalogo.svg"
   inkscape:export-filename="/mnt/hgfs/shared_with_vm/pandalogo.png"
   inkscape:export-xdpi="300"
   inkscape:export-ydpi="300">
  <defs
     id="defs4" />
  <sodipodi:namedview
     id="base"
     pagecolor="#ffffff"
     bordercolor="#666666"
     borderopacity="1.0"
     inkscape:pageopacity="0.0"
     inkscape:pageshadow="2"
     inkscape:zoom="0.7"
     inkscape:cx="380.71429"
     inkscape:cy="442.56414"
     inkscape:document-units="px"
     inkscape:current-layer="layer1"
     showgrid="false"
     inkscape:window-width="1163"
     inkscape:window-height="870"
     inkscape:window-x="348"
     inkscape:window-y="32"
     inkscape:window-maximized="0" />
  <metadata
     id="metadata7">
    <rdf:RDF>
      <cc:Work
         rdf:about="">
        <dc:format>image/svg+xml</dc:format>
        <dc:type
           rdf:resource="http://purl.org/dc/dcmitype/StillImage" />
        <dc:title></dc:title>
      </cc:Work>
    </rdf:RDF>
  </metadata>
  <g
     inkscape:label="Layer 1"
     inkscape:groupmode="layer"
     id="layer1"
     transform="translate(0,-308.2677)">
    <g
       style="font-size:12px;font-style:normal;font-weight:normal;fill:#008000;fill-opacity:1;stroke:#000000;stroke-width:1;stroke-linecap:square;stroke-linejoin:miter;stroke-miterlimit:10;stroke-opacity:1;stroke-dasharray:none;stroke-dashoffset:0;font-family:Dialog"
       id="g3256"
       transform="translate(16.2813,394.61439)"
       inkscape:export-filename="/mnt/hgfs/shared_with_vm/pandalogo.png"
       inkscape:export-xdpi="300"
       inkscape:export-ydpi="300">
      <g
         id="g3246"
         style="fill:#008000">
        <g
           id="g3248"
           style="fill:#008000">
          <path
             id="path3250"
             d="m 275.9062,230.3438 q 0,-1.4063 -0.9843,4.9218 -2.8125,18.1406 -3.9375,21.7969 -2.5313,8.2969 -10.9688,19.5469 -3.5156,4.7812 -9,8.4375 -0.9844,0.7031 -9.2812,4.9219 -6.3282,3.375 -18.5625,10.5468 -11.25,9.1406 -34.3125,26.4375 -3.2344,2.25 -13.1485,5.6953 -9.914,3.4454 -14.2734,4.0078 -1.125,0.1407 -17.7187,0.1407 -2.5313,0 -7.6641,0.2812 -5.1328,0.2813 -7.6641,0.2813 -11.9531,0 -29.8125,-10.4063 -3.7969,-3.2343 -10.9687,-9.2812 -9,-7.3125 -23.3438,-17.1563 -9.4218,-4.7812 -27.8437,-15.3281 -10.4063,-6.6094 -18.8438,-23.625 -1.125,-2.25 -3.5859,-15.3281 -2.461,-13.0782 -2.461,-16.1719 0,-1.5469 0.9844,-14.0625 0.4219,-8.2969 2.3906,-24.8906 3.2344,-12.6563 9,-37.9688 -7.4531,-5.3437 -9.4218,-13.2187 Q 13.5,135.8438 13.5,123.4688 q 0,-16.875 18.2812,-33.961 18.2813,-17.0859 35.2969,-17.0859 9.7031,0 17.5078,6.1875 7.8047,6.1875 10.1953,15.4687 0.5626,2.5313 2.3907,5.7657 2.9531,-0.9844 9,-2.5313 11.9531,-2.3906 17.2969,-2.3906 l 40.0781,0 q 13.6406,0 26.2969,4.9219 2.1093,-5.625 5.2031,-13.2188 1.9687,-4.0781 8.3672,-8.5078 6.3984,-4.4297 11.039,-5.4141 1.4063,-0.2812 5.9063,-0.2812 20.3906,0 37.5468,18.8437 15.75,17.4375 15.75,32.7656 0,11.8126 -0.9843,16.1719 -1.9688,8.4375 -9.1407,12.9375 3.2344,11.8125 8.4376,35.8594 3.9374,24.3281 3.9374,41.3438 z m -10.2656,-6.75 q 0,-13.9219 -3.0937,-33.8907 -2.8125,-16.7343 -5.625,-33.6093 -11.9531,1.5468 -9.7031,1.5468 -4.6407,0 -6.8907,-1.4062 -0.9843,-0.5625 -4.0781,-4.3594 -5.9062,-7.4531 -11.6719,-14.9062 -7.1719,-8.2969 -14.2031,-12.2344 -6.0469,-2.1094 -17.1562,-7.3125 -3.0938,-1.8281 -3.2344,-8.8594 l 0,-0.5625 -18.4219,-3.9375 -55.6875,0 q 0,0 -18.4219,3.9375 -0.2812,2.6719 -0.5625,5.2031 -0.4218,3.0938 -2.4609,4.0078 -2.0391,0.9141 -5.6953,2.461 -14.9063,6.0469 -20.1094,10.9687 -3.2344,3.0938 -22.0781,25.875 -0.9844,0.1406 -3.0938,0.6328 -2.1093,0.4922 -3.2343,0.4922 2.9531,0 -9.8438,-1.5468 -0.4219,4.2187 -5.2031,33.6093 -3.375,20.3907 -3.375,33.8907 0,9.4218 2.9531,22.9218 0.7031,4.2188 3.0938,12.375 4.7812,10.9688 14.9062,18.1406 8.7188,4.6407 25.7344,14.9063 9.9844,6.75 24.4687,17.8594 4.6407,3.6562 14.2031,10.6875 9.2813,6.0468 44.0157,6.0468 12.0937,0 21.5156,-2.8124 5.625,-1.6876 18.4219,-11.9532 13.5,-10.8281 27.8437,-19.8281 9,-4.9219 26.2969,-15.4687 10.2656,-7.1719 14.3438,-18.1407 6.0468,-16.4531 6.0468,-34.7343 z m -36.9844,14.7656 q 0,18.8437 -9.1406,25.3125 -7.0312,5.0625 -12.5156,5.0625 -8.0156,0 -8.7188,-6.1875 -1.4062,-11.25 -2.9531,-13.7813 -1.125,-1.9687 -6.75,-5.625 -7.4531,-4.7812 -7.875,-5.2031 -5.0625,-4.0781 -5.0625,-7.5937 0,-2.5313 2.7422,-5.5547 2.7422,-3.0235 2.7422,-6.2579 0,-1.6874 -0.5625,-5.3437 Q 180,209.5312 180,207.8438 q 0,-5.2032 2.9531,-9.4922 2.9531,-4.2891 7.875,-4.2891 25.3125,0 36,27.5625 1.8281,4.6406 1.8281,16.7344 z m -41.7656,43.1718 q 0,19.4063 -36.4218,18.7032 l -23.3438,-0.4219 q -19.6875,-0.4219 -25.875,-12.5156 -0.7031,-1.4063 -0.7031,-5.7657 0,-11.8124 12.375,-11.8124 3.375,0 9.7031,1.125 7.5938,1.2656 9.9844,1.4765 2.3906,0.2109 5.7656,0.0703 l 5.3438,0 q 9.7031,-0.1406 17.0156,-1.125 11.9531,-1.5468 13.7812,-1.5468 12.375,0 12.375,11.8124 z m -75.0937,-50.625 q 0,0 -2.461,3.375 -2.4609,3.375 -8.789,7.4532 -6.3281,4.0781 -8.4375,7.0312 -0.9844,1.5469 -2.3906,12.375 -0.8438,7.5938 -7.3126,7.5938 -13.7812,0 -20.25,-11.9532 -0.7031,-1.125 -2.5312,-8.1562 -1.4062,-5.2031 -1.4062,-9.5625 0,-11.1094 2.25,-17.8594 1.8281,-5.4843 8.0859,-13.0078 6.2578,-7.5234 11.3203,-10.0547 8.0156,-3.9375 14.2031,-3.9375 13.2188,0 13.2188,12.9375 0,1.5469 -0.4922,4.5 -0.4922,2.9532 -0.4922,4.5 0,6.75 4.7813,9.9844 0.7031,5.625 0.7031,4.7812 z m 49.7812,73.6876 q -1.2656,4.2187 -3.9375,12.6562 -5.4844,3.375 -7.0312,3.375 l -13.7813,0 q -1.125,0 -4.9219,-3.5156 -3.375,-3.0938 -4.3593,-4.6406 -0.7031,-2.8126 -2.25,-7.7344 11.5312,4.6406 19.5469,4.6406 1.6874,0 13.7812,-1.6875 0.9844,-0.9844 2.9531,-3.0937 z m 43.0313,-86.625 q 0,-0.8438 -0.3516,-2.3204 -0.3516,-1.4765 -0.3516,-2.1796 -0.4218,0 -1.3359,-0.2813 -0.9141,-0.2813 -1.4765,-0.2813 -4.6407,0 -4.6407,6.75 0,5.0626 3.2344,5.0626 4.9219,0 4.9219,-6.75 z m 12.2344,8.8593 q 0,-1.125 -0.5626,-1.5469 -2.1093,-0.2812 -6.3281,-0.9843 0,5.3437 -3.7969,7.4531 -0.1406,0.4219 -0.1406,0.9844 0,2.6718 3.5156,7.4531 l 2.9532,0 q 4.3594,-11.6719 4.3594,-13.3594 z m -47.6719,56.25 0,-4.6406 q -3.6563,-1.6875 -3.7969,-1.6875 -2.5312,0 -8.0156,1.125 -5.4844,1.125 -8.4375,1.125 -13.5,0 -15.3281,-0.2812 -14.4844,-1.9688 -11.5313,-1.9688 -0.1406,0 -3.7969,1.6875 l 0,4.6406 q 6.0469,3.2344 18.8438,3.2344 l 15.75,0 q 8.7187,0 14.625,-1.6875 0.5625,-0.5625 1.6875,-1.5469 z M 82.8281,217.9688 q 0,-0.7032 -0.2812,-2.25 -0.2813,-1.5469 -0.2813,-2.25 -0.4218,0 -1.3359,-0.2813 -0.9141,-0.2813 -1.4766,-0.2813 -4.6406,0 -4.6406,4.0782 l 0,6.6094 q 0.5625,0 1.6172,0.5624 1.0547,0.5626 1.6172,0.5626 4.7812,0 4.7812,-6.75 z m 12.2344,10.2656 0,-3.9375 q -0.9844,0.9843 -1.8281,0.9843 -0.8438,0 -2.461,-0.4921 -1.6172,-0.4922 -2.4609,-0.4922 l 0,0.7031 q 0,2.5312 -1.8984,5.0625 -1.8985,2.5313 -1.8985,2.9531 0,0.8438 3.375,7.1719 1.9688,-0.9844 4.5703,-5.3437 2.6016,-4.3594 2.6016,-6.6094 z"
             inkscape:connector-curvature="0"
             style="stroke:none;fill:#008000" />
        </g>
      </g>
    </g>
    <g
       style="font-size:12px;font-style:normal;font-weight:normal;fill:#008000;fill-opacity:1;stroke:#000000;stroke-width:1;stroke-linecap:square;stroke-linejoin:miter;stroke-miterlimit:10;stroke-opacity:1;stroke-dasharray:none;stroke-dashoffset:0;font-family:Dialog"
       id="g3325"
       transform="translate(333.55359,394.61439)"
       inkscape:export-filename="/mnt/hgfs/shared_with_vm/pandalogo.png"
       inkscape:export-xdpi="300"
       inkscape:export-ydpi="300">
      <g
         id="g3315"
         style="fill:#008000">
        <g
           id="g3317"
           style="fill:#008000">
          <path
             id="path3319"
             d="m 274.2188,293.625 q 0,2.1094 -0.9844,5.7656 -6.8906,-4.6406 -13.7813,-9.2812 -10.5469,-6.8906 -13.5,-6.8906 -2.8125,0 -11.8125,8.1562 -2.8125,2.5312 -5.6953,9.0703 -2.8828,6.5391 -3.3047,10.6172 12.5156,9.4219 27.4219,20.1094 -4.6406,4.0781 -11.9531,4.0781 -8.4375,0 -14.3438,-1.8281 -14.0625,-4.2188 -20.5312,-16.5938 -0.4219,-2.1093 -1.5469,-6.0469 -1.6875,-6.0468 -3.375,-12.0234 -1.6875,-5.9766 -6.4687,-11.4609 L 130.3594,214.4531 Q 115.875,198 86.2031,165.5156 q -4.2187,-4.3594 -16.5937,-8.4375 -4.7813,-1.5469 -9.2813,-1.5469 -2.1093,0 -6.3984,0.9141 -4.2891,0.9141 -6.3985,0.9141 -3.375,0 -11.6718,-3.5156 -1.9688,-1.4063 -5.9063,-4.0782 -9.8437,-6.3281 -13.6406,-12.6562 -1.4063,-2.25 -3.0937,-10.5469 -1.6876,-8.2969 -1.6876,-11.5313 0,-0.4218 1.4063,-2.5312 5.3437,3.0938 19.9687,12.375 2.8126,1.9688 8.7188,5.4844 2.8125,1.4062 5.9062,1.4062 4.6407,0 13.0782,-8.5078 8.4375,-8.5078 8.4375,-13.1484 l 0,-11.8125 -30.2344,-18.4219 1.4063,-4.7812 q 5.625,-2.6719 10.9687,-2.6719 18.8437,0 27.1406,6.6093 13.6407,10.6876 15.3281,19.125 -0.1406,6.3282 1.125,18.8438 0.2813,1.125 2.6719,4.9922 2.3907,3.8672 17.0157,20.4609 32.3437,37.2657 98.0156,110.9531 2.8125,3.0938 8.2968,5.7657 6.1876,2.9531 14.7657,3.5156 11.1093,0.5625 14.625,1.4063 9,2.25 16.5234,11.3203 7.5235,9.0703 7.5235,18.2109 z"
             inkscape:connector-curvature="0"
             style="stroke:none;fill:#008000" />
        </g>
      </g>
    </g>
    <g
       style="font-size:12px;font-style:normal;font-weight:normal;fill:#008000;fill-opacity:1;stroke:#000000;stroke-width:1;stroke-linecap:square;stroke-linejoin:miter;stroke-miterlimit:10;stroke-opacity:1;stroke-dasharray:none;stroke-dashoffset:0;font-family:Dialog"
       id="g3394"
       transform="translate(637.88845,377.03629)"
       inkscape:export-filename="/mnt/hgfs/shared_with_vm/pandalogo.png"
       inkscape:export-xdpi="300"
       inkscape:export-ydpi="300">
      <g
         id="g3384"
         style="fill:#008000">
        <g
           id="g3386"
           style="fill:#008000">
          <path
             id="path3388"
             d="m 298.4062,320.0625 q -2.1093,2.3906 -3.0937,2.3906 l -26.1563,0 q -5.625,0 -8.5781,-3.9375 -1.9687,-2.6718 -7.875,-14.2031 -6.3281,-12.2344 -6.3281,-14.2031 0,-2.8125 2.7422,-6.3985 2.7422,-3.5859 5.414,-4.1484 1.9688,-0.4219 16.1719,-0.4219 2.6719,0 4.0781,0.4219 3.375,0.9844 13.5,11.3203 10.125,10.336 10.125,13.0078 l 0,16.1719 z m -60.4687,-89.0156 -94.2187,0 q 1.6874,15.0469 1.6874,15.6093 0,1.5469 1.4063,2.5313 2.8125,0.5625 47.9531,9.5625 l 0,7.4531 -28.5468,2.8125 q -14.3438,1.4063 -14.3438,1.4063 l -38.8125,0 q 0,0 -14.3437,-1.4063 l -28.5469,-2.8125 0.1406,-3.5156 -0.1406,-3.9375 47.8125,-9.8438 Q 120.375,236.25 120.375,230.625 l -93.5156,0 0,-140.625 211.0781,0 0,141.0469 z m 15.0469,92.5312 q -0.7032,3.2344 -1.9688,9.7031 l -237.5156,0 q -0.8438,-2.3906 -1.9688,-9.1406 l 21.2344,-45.2812 198.9844,0 21.2344,44.7187 z m 21.0937,-33.8906 0,-4.0781 q 0,-0.9844 -2.5312,-4.2188 -0.5625,-0.1406 -1.8985,-0.6328 -1.3359,-0.4922 -1.8984,-0.4922 0.1406,0 -4.5,1.5469 1.8281,2.6719 5.7656,7.875 l 5.0625,0 z m -51.1875,-75.5156 0,-111.0938 -181.2656,0 0,111.0938 181.2656,0 z m 12.2344,96.4687 -9.9844,-23.2031 -185.3437,0 -10.4063,23.2031 205.7344,0 z"
             inkscape:connector-curvature="0"
             style="stroke:none;fill:#008000" />
        </g>
      </g>
    </g>
    <text
       xml:space="preserve"
       style="font-size:40px;font-style:normal;font-variant:normal;font-weight:normal;font-stretch:normal;line-height:125%;letter-spacing:0px;word-spacing:0px;fill:#008000;fill-opacity:1;stroke:none;font-family:Courier 10 Pitch;-inkscape-font-specification:Courier 10 Pitch"
       x="34.571423"
       y="809.50507"
       id="text3399"
       sodipodi:linespacing="125%"
       inkscape:export-filename="/mnt/hgfs/shared_with_vm/pandalogo.png"
       inkscape:export-xdpi="300"
       inkscape:export-ydpi="300"><tspan
         sodipodi:role="line"
         id="tspan3401"
         x="34.571423"
         y="809.50507"
         style="font-size:56px;fill:#008000">https://github.com/panda-re</tspan></text>
  </g>
</svg>
